<svg id="Слой_1" data-name="Слой 1" xmlns="http://www.w3.org/2000/svg" viewBox="0 0 303 349"><path d="M151.18,222.35a9.29,9.29,0,0,1-5.35-1.53c-6.94-5-14.1-9.92-21-14.7-20.61-14.21-41.92-28.9-60.55-46.73-22-21-34.66-41.25-39.91-63.66C19.24,74,21.43,54,30.84,36.33,47.15,5.61,83.18-6.26,118.44,7.47c12.61,4.9,23.39,13.42,32.95,26C167,13.1,187.21,2.48,211.37,2c34.9-.76,62.34,22,68.25,56.61.61,3.61.94,7.23,1.25,10.73.14,1.57.28,3.15.45,4.71l0,.3v.29c-.33,24.55-9.63,47.34-28.42,69.68-16.36,19.42-35.8,34.59-59.95,51.38q-6.63,4.6-13.22,9.27c-7.44,5.23-15.13,10.65-22.8,15.86A10.64,10.64,0,0,1,151.18,222.35Zm-.05-9.86a3,3,0,0,0,.53,0c7.52-5.11,15.09-10.44,22.42-15.6,4.42-3.1,8.83-6.21,13.26-9.29,23.51-16.35,42.38-31,58-49.64,17.2-20.43,25.74-41.1,26.11-63.17-.16-1.53-.29-3-.43-4.58-.31-3.46-.6-6.73-1.15-10-5.13-30.07-28-49.08-58.31-48.4-21.37.47-38.53,9.57-52.48,27.82-2.27,3-4.24,5.56-7.72,5.56h0c-3.51,0-5.49-2.63-7.78-5.66-8.44-11.16-17.83-18.64-28.72-22.88C84.41,4.8,53.43,14.79,39.54,41,31.29,56.49,29.4,74.16,33.93,93.48c4.86,20.74,16.31,38.87,37.12,58.79C89.12,169.55,110.1,184,130.39,198,137.21,202.71,144.26,207.57,151.13,212.49Zm-.22,0Z"/><path d="M119.05,251a71.29,71.29,0,0,0-1.88-7.42,45.52,45.52,0,0,0-13.85-19.95,81.93,81.93,0,0,1-6.52-6.11,14.93,14.93,0,0,1-4.21-12.28c.36-3.66,2.37-5.36,5.9-4.3,3,.87,6.12,1.9,8.52,3.73,9.88,7.54,19.75,15.14,29.15,23.26,6.92,6,10.73,14.38,15,22.32,7,13.08,11.44,27.12,15.44,41.33,1.92,6.81,4,13.58,6.55,20.17,2.69,7,2,13.53-1.41,20a34,34,0,0,1-8.69,11c-7.79,6.31-16.69,6-24-.78-5.53-5.13-8.78-11.73-12.12-18.35S120,310,116,303.53c-6.85-11-17.13-18-28.89-23C80.33,277.64,73.46,275,66.72,272c-8.85-4-16.75-9.22-23-16.91-7.46-9.21-15.46-18.1-20.37-29-4.14-9.18-8.64-18.09-13.52-26.89-2.8-5.06-4.16-11-5.91-16.54A95.74,95.74,0,0,1,1.1,171c-.45-2.54-.71-5.56,2-7.06s5.54-.71,8.09.84c3.44,2.09,5.64,5.3,7.32,8.82a96,96,0,0,1,4.58,10.9c2.11,6.41,6.07,11.72,9.67,17.26,3,4.69,6,9.39,9.26,13.95a20.72,20.72,0,0,0,4.38,4.39c6.78,5.23,13.46,10.62,20.55,15.41,6.06,4.1,12.64,7,20.43,6.41,9-.69,17.27,2.57,25.22,6.46,1.91.94,3.77,2,5.64,3l.79-.43Z"/><path d="M179.37,316.73c-2.74-8.49-5.66-16.69-8-25.05-4.24-14.92-8.85-29.68-16.36-43.34-.79-1.44-.32-2.47.3-3.71,6.07-12.15,15.57-21.1,26.48-28.82,3.29-2.32,6.35-4.93,9.48-7.46,4-3.22,8.1-6.08,13.15-7.34,4.29-1.06,6.15.34,6.52,4.73.43,5-1.46,9-4.88,12.45-2.53,2.53-5.3,4.8-7.91,7.24A43.78,43.78,0,0,0,184.85,249a8.76,8.76,0,0,0-.18,1.55c0,.19.16.39.34.83a13.48,13.48,0,0,0,1.54-.67c7-4,14.37-7.23,22.45-8.39a23.79,23.79,0,0,1,6.44-.42c5.52.76,10.38-1,15.32-3.06,5.4-2.26,9.56-6.25,14.2-9.57s9.29-6.76,13.68-10.42a26.94,26.94,0,0,0,4.67-5.89c4.58-6.79,9.25-13.53,13.47-20.54,2.08-3.46,3.12-7.52,4.85-11.22a104.92,104.92,0,0,1,6.18-12.09c2.26-3.56,5.6-6,10.21-5.77,2.57.12,4.16,1.17,4.16,3.69a47.61,47.61,0,0,1-1.07,10.79,120.82,120.82,0,0,1-4.53,14.72,62.43,62.43,0,0,1-5,10.43,107,107,0,0,0-9.37,18.49c-3.18,8.63-8.53,16-14.08,23.2-3.55,4.6-7.37,9-11.14,13.41-6.43,7.54-15.13,11.69-23.91,15.62-7.06,3.17-14.33,5.84-21.36,9.05-13.8,6.31-23.34,17-30,30.38-.49,1-1,2-1.56,3-.1.18-.33.29-.78.68Z"/><path d="M64.53,228.33c-4.44-3.34-8.72-6.92-13.36-10-5.47-3.57-9.26-8.46-12.61-13.89-2.82-4.55-5.77-9-8.84-13.42-3.73-5.33-6-11-5.93-17.66.06-3.94-.28-7.89-.21-11.84a29.28,29.28,0,0,1,.89-6.37c1-4.34,3.61-5.54,7.67-3.63,4.88,2.3,6.85,6.78,7.8,11.6,1.18,6,1.62,12.11,2.79,18.08a89.76,89.76,0,0,0,3.44,11.28c2.14,6.33,4.19,12.71,6.69,18.9,1.06,2.62,3.07,4.86,4.81,7.16,2.36,3.13,4.86,6.16,7.31,9.24l-.45.49Z"/><path d="M238.49,227.86c2.53-3.19,4.81-6.6,7.62-9.51,4.13-4.27,5.63-9.7,7.48-15,2.2-6.4,4.53-12.76,6.49-19.22.88-2.88.9-6,1.49-9,1.1-5.6,2.09-11.25,3.63-16.73a10.61,10.61,0,0,1,6.48-7c3.78-1.53,6.34-.4,7.27,3.52a33.28,33.28,0,0,1,1,7.49,100.43,100.43,0,0,1-.52,14.73,28.06,28.06,0,0,1-3.51,10.45c-5,8.34-10.62,16.34-16,24.48a4.88,4.88,0,0,1-1,1.22l-19.9,15-.5-.47Z"/><path d="M67,222.25c-.47-.52-1-1-1.42-1.53-3-3.71-6.17-7.29-8.87-11.2a43.43,43.43,0,0,1-4.33-8.68c-1.48-3.72-2.47-7.64-3.94-11.37a12.71,12.71,0,0,1-.69-7.38c.87-4.45,1.6-8.91,2.43-13.37a10.06,10.06,0,0,1,.74-1.85c1.87-4.41,4.78-5.37,9.07-1.45,2.93,2.67,3.74,6.42,3.91,10.17a64.76,64.76,0,0,1-.15,11.82c-1,7.26.69,14.21,1.67,21.26.62,4.46,1.32,8.9,2,13.36l-.41.23Z"/><path d="M236.08,222c.57-4,.92-8.12,1.76-12.09,2.06-9.62,2.27-19.27,1.68-29.05-.24-3.91.72-7.95,1.61-11.82a8,8,0,0,1,5-5.41c2.59-1.08,4.5-.73,5.59,1.81a64.74,64.74,0,0,1,3,9.49c.51,2,.3,4.2.88,6.17,1.26,4.37-.52,8.17-1.83,12.1-.87,2.61-2,5.14-2.64,7.8-1.36,5.69-5.27,9.72-8.7,14.08-1.92,2.44-3.89,4.81-5.83,7.22l-.53-.32Z"/><path d="M221.73,230c0-4.39-.19-8.11,0-11.8.37-6-1-11.67-2.15-17.42-.89-4.36-2-8.76-.55-13.23a12.43,12.43,0,0,1,.6-1.68c1.07-2.16,2.63-4.06,5.09-4.23s3.87,2,4.62,4a119.43,119.43,0,0,1,5.15,15.62c.59,2.59-.41,5.58-.82,8.37-.66,4.56-1.49,9.1-2.09,13.67a4.56,4.56,0,0,1-3.2,4.09c-2.06.76-4.09,1.6-6.7,2.63Z"/><path d="M81.76,230.2c-3.34-1.55-6.09-2.74-8.74-4.12a2.83,2.83,0,0,1-.9-1.91c-.87-5.21-1.67-10.43-2.49-15.65a8.06,8.06,0,0,0-.13-1.1c-1.23-4-.58-7.74.93-11.51,1.37-3.44,2.3-7.06,3.74-10.47.79-1.88,2.09-4,4.49-3.84s4,1.87,5,4a14.9,14.9,0,0,1,1.22,9.14c-.69,3.81-1.67,7.57-2.09,11.41-.56,5.22-.75,10.5-1,15.75-.12,2.5,0,5,0,8.3Z"/><path d="M234.83,83.77l0,0a1.3,1.3,0,0,0-2,.39L232,85.38a17.38,17.38,0,0,1-4,4.2,16.16,16.16,0,0,0,.22-3,14.41,14.41,0,0,0-6.64-11.16A9.39,9.39,0,0,0,216,74a4.86,4.86,0,0,0-4.69,3.76,10.22,10.22,0,0,0-.23,1.16c-.05.5-.16.88-.16,1.16a2.87,2.87,0,0,1-1,1.94A7.36,7.36,0,0,0,208,84.32c-.1.13-.22.32-.39.56l-.39.66c-1.11,1.61-2.21,2.49-3.43,2.71a4.75,4.75,0,0,1-2-.33,28.38,28.38,0,0,0,.6-3.7,16.9,16.9,0,0,0-.11-3.38,5.81,5.81,0,0,0-1.38-3.09,7.55,7.55,0,0,0-3.15-2,8.64,8.64,0,0,0-2.32-.44,4.93,4.93,0,0,0-2,.28,9,9,0,0,0-1.71.83,7.48,7.48,0,0,0-1.55,1.43c-.5.67-.94,1.22-1.33,1.72a14.29,14.29,0,0,0-1.21,2c-.45.83-.78,1.49-1.05,2s-.61,1.22-1,2.1-.72,1.5-.94,1.94a27.7,27.7,0,0,1,.22-6.19,22.17,22.17,0,0,0,.11-6.31c-.44-2.15-2.21-3.26-5.25-3.26a3,3,0,0,0-1.22.22,3,3,0,0,0-.94.72,11.6,11.6,0,0,0-.71.94,3.48,3.48,0,0,0-.56,1.38c-.16.61-.27,1-.38,1.39a6.26,6.26,0,0,0-.28,1.54c-.06.72-.11,1.22-.11,1.44a7.09,7.09,0,0,0-.11,1.44c-.06.66-.06,1.11-.06,1.11-.1.89-.19,1.81-.26,2.76L174.23,86c-.77,1-1.38,1.71-1.71,2.21a21.57,21.57,0,0,1-3,3.2,1.15,1.15,0,0,0-.05-.27V91a10.49,10.49,0,0,0-2.27-6.2,9,9,0,0,0-5.42-3.42,8.29,8.29,0,0,0-6.13.83,12,12,0,0,0-4.43,4.36,20.38,20.38,0,0,0-2.54,7.19c-.05.39-.11,1-.22,1.94s-.22,1.54-.22,1.93a7.18,7.18,0,0,1-1.05-1.88,21.12,21.12,0,0,1-1-7.63,26.32,26.32,0,0,1,.22-2.76c.16-1,.27-1.83.39-2.44s.33-1.54.6-2.81.45-2.16.56-2.55A5.28,5.28,0,0,1,151.29,74c.28-.11.72-.22,1.27-.39a4.88,4.88,0,0,1,.94-.22c2.71-.66,4.59-1.22,5.64-1.55a15.57,15.57,0,0,0,6.69-4.59,3.58,3.58,0,0,0,.88-2.54,3.07,3.07,0,0,0-1.27-2.27,6.83,6.83,0,0,0-3-1.54c-.94-.39-2-.12-3.1.88L158.42,63a16.89,16.89,0,0,1-7.63,5.91,29.37,29.37,0,0,0-8.57,4.87,12.48,12.48,0,0,0-4.7,7.41,24.06,24.06,0,0,0-.46,2.82l-.09.11-.89,1.27a17.19,17.19,0,0,1-4,4.2,15.26,15.26,0,0,0,.23-3,14.41,14.41,0,0,0-6.64-11.16A9.39,9.39,0,0,0,120.05,74a4.87,4.87,0,0,0-4.7,3.76c0,.27-.16.66-.22,1.16s-.16.88-.16,1.16A3,3,0,0,1,114,82a7.47,7.47,0,0,0-2.15,2.88l-.61.93a5.66,5.66,0,0,1-4.76,2.32l.55-1.88a35,35,0,0,0,1.11-12.05Q106.87,63.1,96,60A41.32,41.32,0,0,0,85.55,59a12.72,12.72,0,0,0-9.29,4,10.12,10.12,0,0,0-3,9.23,12,12,0,0,0,4.37,7.08,11,11,0,0,0,1.27,1,11.42,11.42,0,0,1,1,.78,1.16,1.16,0,0,1,.55,1.1l-1,3.37c-3.09.45-4.75.72-4.86.72a6.57,6.57,0,0,0-4,2.27,8.75,8.75,0,0,0-1.38,4.7,4.08,4.08,0,0,0,2.38,3.87,7.94,7.94,0,0,0,4.36.88,15.53,15.53,0,0,0,7.58-2.54,15.91,15.91,0,0,0,5.25-6.91c1.11,2,1.77,3,1.77,3.1.16.33.39.82.72,1.6A12.67,12.67,0,0,0,92,94.89a6.17,6.17,0,0,0,5,3.26,5.69,5.69,0,0,0,5.42-2.49,16.75,16.75,0,0,0,1.49-2.27c.55-1,.94-1.6.94-1.6a1.53,1.53,0,0,0,.27-.44c.11-.22.23-.33.23-.44a8.47,8.47,0,0,0,5-.73,16.62,16.62,0,0,0,.48,6.53,7.38,7.38,0,0,0,3.21,4.7,10.52,10.52,0,0,0,5.7,1.6,11.65,11.65,0,0,0,7.74-2.7,13.07,13.07,0,0,0,4.09-7.19A16.65,16.65,0,0,0,137,88.87c0,.61.06,1.22.13,1.87A17.3,17.3,0,0,0,140.4,100c2.1,2.93,4.59,4.54,7.57,4.7a4.19,4.19,0,0,0,3.43-1.1,2.06,2.06,0,0,0,.66-1.72,47.14,47.14,0,0,1-.27-5.86,13,13,0,0,1,4.53-9.56,7.46,7.46,0,0,1,3.43-2,11.1,11.1,0,0,1,.55,1.21,21.66,21.66,0,0,1-.55,6.75,2,2,0,0,1-1.33,1.66c-3.87,1.77-5.86,5.19-6,10.34a2.8,2.8,0,0,0,2.43,3,6,6,0,0,0,4.26-.39,13,13,0,0,0,4.31-3.26,25.15,25.15,0,0,0,5-7.58l.33-1.27a15.46,15.46,0,0,0,6-4.89c0,1.41-.05,2.84-.05,4.34a49.09,49.09,0,0,0,1.38,11.83,11.76,11.76,0,0,0,3.38,6.3,3.82,3.82,0,0,0,3.59.67c1.55-.39,2.21-1.22,1.93-2.55-.94-3.26-.88-7.79.11-13.6L185.4,96c1.77,1.55,4.09,1.88,6.86.89a16,16,0,0,0,8.23-6.36,6.5,6.5,0,0,0,2.88.66c.44,0,.72-.05.88-.05a7.25,7.25,0,0,0,2-.68,16.63,16.63,0,0,0,.52,6.26,7.33,7.33,0,0,0,3.2,4.7,10.55,10.55,0,0,0,5.7,1.6,11.63,11.63,0,0,0,7.74-2.7,13,13,0,0,0,4.09-7.19c2.65-1.22,5.25-3.71,7.74-7.36A1.25,1.25,0,0,0,234.83,83.77ZM77.2,90.69a27.28,27.28,0,0,1-1.43,2.7,3.44,3.44,0,0,1-2.1,1.88,3.5,3.5,0,0,1-.67-4c.83-2,2.66-2.93,5.42-2.93C78.2,88.69,77.76,89.47,77.2,90.69Zm4.88-14.22a6.89,6.89,0,0,1-1.17-5.63,12.28,12.28,0,0,1,4-6.91,3,3,0,0,1,.28-.22h.06C85.06,64.42,84,68.66,82.08,76.47ZM96.89,95.22c-.5-.83-1.83-3.32-4-7.41l6.69,2Zm4.25-11.94c-.16.88-.44,2.1-.77,3.59L90.14,83.94h0a5.14,5.14,0,0,0,.27-1.33l4.09-16a2.08,2.08,0,0,0-1-2.55,8.68,8.68,0,0,0-5.91-1.27l-.62.09c3.81-1.95,7.24-1.49,10.24,1.4a11.56,11.56,0,0,1,2.65,4A25,25,0,0,1,101.14,83.28Zm20.68,16.14a2.41,2.41,0,0,1-2.16,1.22c-.88-.23-1.43-1.06-1.6-2.49a14.16,14.16,0,0,1,.11-4,30.69,30.69,0,0,1,.83-3.54,14.06,14.06,0,0,0,5.42,2.66A12.54,12.54,0,0,1,121.82,99.42Zm2.82-9.12h-.22a7.8,7.8,0,0,1-1.71-.72,10.23,10.23,0,0,1-2.44-2.1,6.36,6.36,0,0,0,1.11-3.54,3.53,3.53,0,0,0-.83-2.27,4,4,0,0,0-1.94-1,5.21,5.21,0,0,1,1.44-4l0,0c1.66.44,2.93,2.1,3.81,5A22.25,22.25,0,0,1,124.64,90.3Zm31,14.1a8.23,8.23,0,0,1,2.54-7C157.92,101,157.09,103.35,155.66,104.4ZM192,90.3c-.38.83-.71,1.44-.93,1.82s-.56.89-1,1.5a7.35,7.35,0,0,1-1.27,1.49c-1.77-1.61-1.88-3.48-.39-5.59a2.08,2.08,0,0,1,.66-.66,7.17,7.17,0,0,1,3.76-.28h.06A16.2,16.2,0,0,0,192,90.3ZM194,85.76a10.4,10.4,0,0,0-5.64.23c.66-1.33,1.16-2.38,1.6-3.1a15.63,15.63,0,0,1,1.94-2.54,10.17,10.17,0,0,1,2.87-2.27l.06-.11c.22-.11.33-.06.44.22C195.41,78.74,195,81.23,194,85.76Zm23.77,13.66a2.41,2.41,0,0,1-2.16,1.22c-.88-.23-1.43-1.06-1.6-2.49a14.16,14.16,0,0,1,.11-4,32.92,32.92,0,0,1,.83-3.54,14.12,14.12,0,0,0,5.42,2.66A12.45,12.45,0,0,1,217.74,99.42Zm2.82-9.12h-.22a7.8,7.8,0,0,1-1.71-.72,10,10,0,0,1-2.43-2.1,6.26,6.26,0,0,0,1.1-3.54,3.48,3.48,0,0,0-.83-2.27,4,4,0,0,0-1.93-1,5.2,5.2,0,0,1,1.43-4l-.05,0c1.66.44,2.93,2.1,3.81,5A22.06,22.06,0,0,1,220.56,90.3Z"/><path d="M105.9,133.22q-15.78-.34-19.21,0c-2.36.31-2.75,1.37-1.3,3.2a6.35,6.35,0,0,0,5.49,2.75c6.18-.23,12.28-.46,18.38-.84,1.83,0,2.28-.76,1.21-2.36A5.44,5.44,0,0,0,105.9,133.22Z"/><path d="M123.38,122.83a4.45,4.45,0,0,0,2.67,1,43.88,43.88,0,0,0,7.39-.29l11.07-1.61a5,5,0,0,1,3.59.51.71.71,0,0,0,.85.08,1,1,0,0,0,.46-1v0a2.6,2.6,0,0,0-.33-1.06,6.25,6.25,0,0,0-6.55-3.51c-2.54.13-6.68.64-12.51,1.48-2.07.17-3.85.34-5.28.51a2.16,2.16,0,0,1-.85.08h-.84c-1.19.17-1.61.77-1.31,1.82A4.1,4.1,0,0,0,123.38,122.83Z"/><path d="M189.73,139.94l0-.08a1,1,0,0,0-1.56.3,40.16,40.16,0,0,0-3.85,6.88,11.27,11.27,0,0,0-.67,1.31,16.18,16.18,0,0,1-.72,1.48c-.21.34-.42.81-.72,1.36s-.55,1-.76,1.31-.42.63-.68,1a3,3,0,0,1-.63.67c-.21.09-.38.17-.55.09s-.21-.09-.3-.21a1.15,1.15,0,0,1-.17-.59,2.93,2.93,0,0,1-.08-.85v-1.1c0-.46,0-.84,0-1.22s0-.81.09-1.31.12-.93.12-1.27.09-.76.09-1.23.08-.8.08-1a46.5,46.5,0,0,1,2.83-10.95c.09-.21.26-.63.55-1.26s.51-1.27.72-1.82a11.25,11.25,0,0,0,.51-1.78,2.43,2.43,0,0,0,0-1.56,1.15,1.15,0,0,0-1-.8,5.58,5.58,0,0,0-3,.17,3.44,3.44,0,0,0-2.12,1.77c-.12.25-.25.68-.46,1.27s-.42,1.05-.59,1.48a3.08,3.08,0,0,1-.68,1,44.35,44.35,0,0,1-8.66,7.06,7.13,7.13,0,0,1-2.79,1.06.55.55,0,0,0-.55.46,2,2,0,0,0,.13.93c.12.38.29.72.46,1.14s.34.85.51,1.31a3.51,3.51,0,0,1,.17,1.27,7.05,7.05,0,0,1-2.24,4.48,10.17,10.17,0,0,1-.93-6.34c1.1-4.61,3.08-8,6-10.18a1.11,1.11,0,0,0,.55-1.06.87.87,0,0,0-.8-.72,9.16,9.16,0,0,0-2.62-.17c-1.82.17-3.55,1.27-5.28,3.3a20.63,20.63,0,0,0-3.59,5.92c-.86,1.36-1.53,2.48-2,3.33-2,3.72-3.55,5.75-4.65,6.17l-.09-.08a2.16,2.16,0,0,1,0-1c.38-1.73,1.14-4.43,2.24-8.11.21-.8.59-2,1.1-3.63s.92-3.05,1.18-4.23a14.76,14.76,0,0,0,.42-3.51,3.7,3.7,0,0,0-2.36-3.59,4.69,4.69,0,0,0-5.67.85,13.06,13.06,0,0,0-2.15,2.57,33.6,33.6,0,0,0-1.78,3c-.46,1-1,2.07-1.43,3.34a29.34,29.34,0,0,0-1.06,3c-.21.76-.47,1.61-.76,2.62s-.47,1.52-.47,1.61c.13-1,.34-2.79.68-5.24a26.27,26.27,0,0,0-.17-11.45,3.4,3.4,0,0,0-2.7-2.37,5.12,5.12,0,0,0-5,1.44,9.65,9.65,0,0,0-1.48,1.94,10.17,10.17,0,0,0-1,2.49,19.73,19.73,0,0,0-.51,2.33c-.09.59-.21,1.48-.34,2.7s-.21,2-.3,2.37c-.08.55-.16,1.35-.25,2.45s-.17,1.9-.25,2.45a2.86,2.86,0,0,1-.42-1.23L127,134.2c-.38-3.72-.6-5.79-.68-6.26a2.33,2.33,0,0,0-2.37-2.07h-1.18a3.27,3.27,0,0,0-1.82.59,2.77,2.77,0,0,0-.76,1.65,31.49,31.49,0,0,0,0,12,25.24,25.24,0,0,0,2,6.17,5.14,5.14,0,0,0,3.3,2.71,4.77,4.77,0,0,0,3.88-.93,1.23,1.23,0,0,0,.47-.68,4.82,4.82,0,0,0,0-.76,1.1,1.1,0,0,1,0-.76c.08-.68.21-2.11.42-4.27s.38-3.84.55-5c0-.17.09-.63.17-1.31s.17-1.18.17-1.43.08-.68.17-1.27a10.26,10.26,0,0,1,.25-1.31c.09-.3.21-.68.38-1.18a6.69,6.69,0,0,1,.51-1.19,10.23,10.23,0,0,1,.68-.93,5.56,5.56,0,0,1,.84-.84,7.58,7.58,0,0,1,.85-.47,85.08,85.08,0,0,1-.93,11.24,29.74,29.74,0,0,0-.09,8.46c.38,2.15,1.57,3.12,3.59,2.95.85-.08,1.53-.17,2.12-.25.38,0,.63-.34.72-.8a67,67,0,0,1,2.83-9.26,32.87,32.87,0,0,1,3.76-7.9,5.93,5.93,0,0,1,2-1.86l-.6,2.07c-.12.51-.33,1.19-.63,2.07s-.55,1.69-.76,2.45-.42,1.44-.59,2.07a41.39,41.39,0,0,0-1.31,9.34,8.72,8.72,0,0,0,.67,3.6,5.09,5.09,0,0,0,1.27,1.52,5,5,0,0,0,1.52.71,3.12,3.12,0,0,0,1.1.22,2.64,2.64,0,0,0,.72-.09,5.3,5.3,0,0,0,.85-.29,4.46,4.46,0,0,0,.8-.51c.29-.21.51-.42.72-.59a9,9,0,0,0,.72-.81,10.08,10.08,0,0,1,.67-.84,10.07,10.07,0,0,0,.68-1c.29-.5.51-.84.63-1.05l.42-.74a1.2,1.2,0,0,1,0,.19,5.68,5.68,0,0,0,3.55,5.11,6,6,0,0,0,6.64-1.1,7,7,0,0,0,2.36-6.38,11,11,0,0,0-.54-1.77,13.92,13.92,0,0,1-.47-1.44,31.7,31.7,0,0,0,7.56-5.07,1.36,1.36,0,0,1,.05.34c-.05.17-.13.42-.21.76-1.82,5.75-2.41,10.35-1.78,13.86.59,3.17,2.7,4.77,6.34,4.77a4.32,4.32,0,0,0,1.65-.63,7,7,0,0,0,1.43-1.18,13.25,13.25,0,0,0,1.31-1.74,12.88,12.88,0,0,0,1.06-1.73c.25-.42.55-1,.93-1.81s.59-1.27.68-1.4a43.2,43.2,0,0,1,3.72-6.59A1,1,0,0,0,189.73,139.94Z"/><path d="M197,121.27c-2.11-.22-3.42.44-3.84,1.94h0a50.17,50.17,0,0,0-1,9.36,33.29,33.29,0,0,0,.81,9.14c.12.35.55,1.32,1.26,2.91a1.72,1.72,0,0,0,1.36.89,1.77,1.77,0,0,0,1.6-.31c.85-.89,1.44-3.62,1.82-8.3,0-.58.08-1.68.21-3.27s.21-2.83.21-3.66v-3.23a17.48,17.48,0,0,0-.34-3.53A2.21,2.21,0,0,0,197,121.27Z"/><path d="M195.49,149.17l0,.05a4.71,4.71,0,0,0-1.22.26,2,2,0,0,0-1.31,1.24,1.84,1.84,0,0,0,.29,1.76,3.77,3.77,0,0,0,1.31,1.15,3.06,3.06,0,0,0,2.62-.09,1.76,1.76,0,0,0,1-1,2.66,2.66,0,0,0-.38-2.38A2.72,2.72,0,0,0,195.49,149.17Z"/></svg>